<!--?xml version="1.0" standalone="no"?-->
              <svg id="sw-js-blob-svg" viewBox="0 0 100 100" xmlns="http://www.w3.org/2000/svg" version="1.1">
                    <defs> 
                        <linearGradient id="sw-gradient" x1="0" x2="1" y1="1" y2="0">
                            <stop id="stop1" stop-color="rgba(248, 117, 55, 1)" offset="0%"></stop>
                            <stop id="stop2" stop-color="rgba(82.796, 58.423, 189.667, 1)" offset="100%"></stop>
                        </linearGradient>
                    </defs>
                <path fill="url(#sw-gradient)" d="M25.9,-28.1C33.5,-24.4,39.7,-16.3,39.5,-8.3C39.3,-0.3,32.8,7.4,27.1,14.1C21.4,20.8,16.5,26.3,9.6,30.6C2.8,34.9,-6,37.8,-14.6,36.3C-23.1,34.8,-31.4,28.8,-34.9,21C-38.5,13.1,-37.3,3.4,-35.8,-6.5C-34.4,-16.5,-32.6,-26.6,-26.5,-30.6C-20.5,-34.6,-10.3,-32.5,-0.6,-31.8C9.1,-31.1,18.2,-31.9,25.9,-28.1Z" width="100%" height="100%" transform="translate(50 50)" stroke-width="0" style="transition: all 0.3s ease 0s;"></path>
              </svg>